# xmcd
#
# Track frame offsets: 
#        150
#        14405
#        29192
#        43250
#        57052
#        70637
#        83620
#        96502
#        110160
#        124207
#        138325
#        151042
#        162487
#        175227
#        188827
#        203145
#        218120
#        232820
#        247165
#        260145
#        274415
#        286772
#        300087
#        313412
#        326844
#
# Disc length: 4520 seconds
#
# Revision: 0
# Processed by: cddbd v1.5.2PL0 Copyright (c) Steve Scherf et al.
# Submitted via: ExactAudioCopy v0.99pb5
#
DISCID=7611a619
DTITLE=Charley Patton - Charley Patton_
DYEAR=2004
DGENRE=Blues
TTITLE0=Pony Blues
TTITLE1=A Spoonful Blues
TTITLE2=Down the Dirt Road Blues (Over the Sea Blues)
TTITLE3=Prayer of Death Pt. 1
TTITLE4=Prayer of Death Pt. 2
TTITLE5=Screamin' and Hollerin' the Blues
TTITLE6=Bandy Rooster Blues
TTITLE7=Tom Rushen Blues
TTITLE8=It Won't Be Long
TTITLE9=Shake It and Break It (But Don't Let It Fall Mama)
TTITLE10=Pea Vine Blues
TTITLE11=Mississippi Boweavil Blues
TTITLE12=Lord, I'm Discouraged
TTITLE13=I'm Goin' Home
TTITLE14=High Water Everywhere Pt. 1
TTITLE15=High Water Everywhere Pt. 2
TTITLE16=I Shall Not Be Moved
TTITLE17=Rattlesnake Blues
TTITLE18=Going to Move to Alabama
TTITLE19=Hammer Blues
TTITLE20=Joe Kirby
TTITLE21=Frankie and Albert
TTITLE22=Devil Sent the Rain Blues
TTITLE23=Magnolia Blues
TTITLE24=Runnin' Wild Blues
EXTD=
EXTT0=
EXTT1=
EXTT2=
EXTT3=
EXTT4=
EXTT5=
EXTT6=
EXTT7=
EXTT8=
EXTT9=
EXTT10=
EXTT11=
EXTT12=
EXTT13=
EXTT14=
EXTT15=
EXTT16=
EXTT17=
EXTT18=
EXTT19=
EXTT20=
EXTT21=
EXTT22=
EXTT23=
EXTT24=
PLAYORDER=
